# xmcd CD database file
#
# Track frame offsets:
#	150
#	10305
#	19302
#	33160
#	43247
#	52332
#	63080
#	72197
#	81565
#	94620
#	105412
#	119332
#	127332
#	135717
#
# Disc length: 1923 seconds
#
# Revision: 0
# Processed by: cddbd v1.4PL0 Copyright (c) Steve Scherf et al.
# Submitted via: Feurio! 1.65 - http://www.feurio.com
#
DISCID=c807810e
DTITLE=Various Artist - Volksmusik aus Franken
DYEAR=1900
DGENRE=
TTITLE0=Kemmärä Kuckuck - Treibgaster
TTITLE1=Stefan and die lustigen Unterfranken - Walzer aus Gefäll
TTITLE2=Kemmärä Kuckuck - Der Frankenwälder
TTITLE3=Die Lohndorfer Madla - Rutsch a wengerla
TTITLE4=Bamberger Zitherduo - Wenn's ruich wädd
TTITLE5=Kemmärä Kuckuck - Lustich Fränkisch
TTITLE6=Die Lohndorfer Madla - Jeder Käfer sucht sei Weibla
TTITLE7=Die Lohndorfer Madla - In Franken is schö
TTITLE8=Kemmärä Kuckuck - Die Wirtslist
TTITLE9=Bamberger Zitherduo - Fränkischer Tanz
TTITLE10=Die Lohndorfer Madla - Wo is denn des Görchla
TTITLE11=Kemmärä Kuckuck - Galopp
TTITLE12=Stefan and die lustigen Unterfranken - Dr. Zwtt
TTITLE13=Kemmärä Kuckuck - Der Metzen
EXTD=
EXTT0=
EXTT1=
EXTT2=
EXTT3=
EXTT4=
EXTT5=
EXTT6=
EXTT7=
EXTT8=
EXTT9=
EXTT10=
EXTT11=
EXTT12=
EXTT13=
PLAYORDER=
